<?xml version="1.0" encoding="utf-8"?>
<!-- Generator: Adobe Illustrator 21.0.2, SVG Export Plug-In . SVG Version: 6.00 Build 0)  -->
<svg version="1.1" id="Layer_1" xmlns="http://www.w3.org/2000/svg" xmlns:xlink="http://www.w3.org/1999/xlink" x="0px" y="0px"
	 viewBox="0 0 350 364" style="enable-background:new 0 0 350 364;" xml:space="preserve">
<style type="text/css">
	.st0{fill:#FFF290;}
	.st1{fill:#E09D0A;}
	.st2{fill:none;stroke:#000000;stroke-width:14;stroke-miterlimit:10;}
	.st3{fill:none;stroke:#000000;stroke-width:2;stroke-miterlimit:10;}
</style>
<g>
	<polygon class="st0" points="145.2,230.4 114.3,177 145.2,123.6 206.8,123.6 237.7,177 206.8,230.4 	"/>
	<path d="M145.7,124.6l60.5,0l30.3,52.4l-30.3,52.4l-60.5,0L115.5,177L145.7,124.6 M144.6,122.6L113.2,177l31.4,54.4l62.8,0
		l31.4-54.4l-31.4-54.4L144.6,122.6L144.6,122.6z"/>
</g>
<g>
	<polygon class="st1" points="145.2,338.4 114.3,285 145.2,231.6 206.8,231.6 237.7,285 206.8,338.4 	"/>
	<path d="M145.7,232.6l60.5,0l30.3,52.4l-30.3,52.4l-60.5,0L115.5,285L145.7,232.6 M144.6,230.6L113.2,285l31.4,54.4l62.8,0
		l31.4-54.4l-31.4-54.4L144.6,230.6L144.6,230.6z"/>
</g>
<g>
	<polygon class="st1" points="145.2,122.4 114.3,69 145.2,15.6 206.8,15.6 237.7,69 206.8,122.4 	"/>
	<path d="M145.7,16.6l60.5,0L236.5,69l-30.3,52.4l-60.5,0L115.5,69L145.7,16.6 M144.6,14.6L113.2,69l31.4,54.4l62.8,0L238.8,69
		l-31.4-54.4L144.6,14.6L144.6,14.6z"/>
</g>
<g>
	<line class="st2" x1="113" y1="177" x2="239" y2="177"/>
</g>
<g>
	<line class="st2" x1="113" y1="201" x2="239" y2="201"/>
</g>
<g>
	<line class="st2" x1="113" y1="153" x2="239" y2="153"/>
</g>
<g>
	<polygon class="st1" points="51.2,176.4 20.3,123 51.2,69.6 112.8,69.6 143.7,123 112.8,176.4 	"/>
	<path d="M51.7,70.6l60.5,0l30.3,52.4l-30.3,52.4l-60.5,0L21.5,123L51.7,70.6 M50.6,68.6L19.2,123l31.4,54.4l62.8,0l31.4-54.4
		l-31.4-54.4L50.6,68.6L50.6,68.6z"/>
</g>
<g>
	<polygon class="st1" points="51.2,284.4 20.3,231 51.2,177.6 112.8,177.6 143.7,231 112.8,284.4 	"/>
	<path d="M51.7,178.6l60.5,0l30.3,52.4l-30.3,52.4l-60.5,0L21.5,231L51.7,178.6 M50.6,176.6L19.2,231l31.4,54.4l62.8,0l31.4-54.4
		l-31.4-54.4L50.6,176.6L50.6,176.6z"/>
</g>
<g>
	<polygon class="st1" points="239.2,176.4 208.3,123 239.2,69.6 300.8,69.6 331.7,123 300.8,176.4 	"/>
	<path d="M239.7,70.6l60.5,0l30.3,52.4l-30.3,52.4l-60.5,0L209.5,123L239.7,70.6 M238.6,68.6L207.2,123l31.4,54.4l62.8,0l31.4-54.4
		l-31.4-54.4L238.6,68.6L238.6,68.6z"/>
</g>
<g>
	<polygon class="st1" points="239.2,284.4 208.3,231 239.2,177.6 300.8,177.6 331.7,231 300.8,284.4 	"/>
	<path d="M239.7,178.6l60.5,0l30.3,52.4l-30.3,52.4l-60.5,0L209.5,231L239.7,178.6 M238.6,176.6L207.2,231l31.4,54.4l62.8,0
		l31.4-54.4l-31.4-54.4L238.6,176.6L238.6,176.6z"/>
</g>
<g>
	<line class="st3" x1="151" y1="103" x2="161" y2="123"/>
</g>
<g>
	<line class="st3" x1="192" y1="123" x2="202" y2="103"/>
</g>
</svg>
