<?xml version="1.0" encoding="utf-8"?>
<!-- Generator: Adobe Illustrator 21.0.2, SVG Export Plug-In . SVG Version: 6.00 Build 0)  -->
<svg version="1.1" id="Layer_1" xmlns="http://www.w3.org/2000/svg" xmlns:xlink="http://www.w3.org/1999/xlink" x="0px" y="0px"
	 viewBox="0 0 1204 156" style="enable-background:new 0 0 1204 156;" xml:space="preserve">
<style type="text/css">
	.st0{fill:#3C9400;}
	.st1{fill:#FFFFFF;}
	.st2{font-family:'GillSans';}
	.st3{font-size:31px;}
	.st4{fill:none;stroke:#000000;stroke-width:2;stroke-miterlimit:10;}
	.st5{fill:none;}
	.st6{font-size:20px;}
</style>
<g>
	<rect x="111" y="85" class="st0" width="97" height="46"/>
	<path d="M207,86v44h-95V86H207 M209,84h-99v48h99V84L209,84z"/>
</g>
<g>
	<rect x="208" y="85" class="st0" width="97" height="46"/>
	<g>
		<path d="M304,86v44h-95V86H304 M306,84h-99v48h99V84L306,84z"/>
	</g>
</g>
<g>
	<rect x="305" y="85" class="st0" width="97" height="46"/>
	<g>
		<path d="M401,86v44h-95V86H401 M403,84h-99v48h99V84L403,84z"/>
	</g>
</g>
<g>
	<rect x="402" y="85" class="st0" width="97" height="46"/>
	<g>
		<path d="M498,86v44h-95V86H498 M500,84h-99v48h99V84L500,84z"/>
	</g>
</g>
<g>
	<rect x="499" y="85" class="st1" width="97" height="46"/>
	<path d="M595,86v44h-95V86H595 M597,84h-99v48h99V84L597,84z"/>
</g>
<g>
	<rect x="596" y="85" class="st1" width="97" height="46"/>
	<path d="M692,86v44h-95V86H692 M694,84h-99v48h99V84L694,84z"/>
</g>
<g>
	<rect x="692" y="85" class="st1" width="97" height="46"/>
	<path d="M788,86v44h-95V86H788 M790,84h-99v48h99V84L790,84z"/>
</g>
<g>
	<rect x="788" y="85" class="st1" width="97" height="46"/>
	<path d="M884,86v44h-95V86H884 M886,84h-99v48h99V84L886,84z"/>
</g>
<g>
	<rect x="885" y="85" class="st1" width="97" height="46"/>
	<path d="M981,86v44h-95V86H981 M983,84h-99v48h99V84L983,84z"/>
</g>
<g>
	<rect x="981" y="85" class="st1" width="97" height="46"/>
	<path d="M1077,86v44h-95V86H1077 M1079,84h-99v48h99V84L1079,84z"/>
</g>
<g>
	<rect x="1078" y="85" class="st1" width="97" height="46"/>
	<path d="M1174,86v44h-95V86H1174 M1176,84h-99v48h99V84L1176,84z"/>
</g>
<text transform="matrix(1 0 0 1 543.1362 35.9092)" class="st2 st3">$75,000</text>
<line class="st4" x1="596" y1="50" x2="596" y2="85"/>
<rect x="175" y="59" class="st5" width="66" height="15"/>
<text transform="matrix(1 0 0 1 175 72.6396)" class="st2 st6">$15,000</text>
<rect x="272" y="59" class="st5" width="66" height="15"/>
<text transform="matrix(1 0 0 1 272 72.6396)" class="st2 st6">$30,000</text>
<rect x="368" y="59" class="st5" width="66" height="15"/>
<text transform="matrix(1 0 0 1 368 72.6396)" class="st2 st6">$45,000</text>
<rect x="466" y="59" class="st5" width="66" height="15"/>
<text transform="matrix(1 0 0 1 466 72.6396)" class="st2 st6">$60,000</text>
</svg>
